<?xml version="1.0" encoding="utf-8" standalone="no"?>
<!DOCTYPE svg PUBLIC "-//W3C//DTD SVG 1.1//EN"
  "http://www.w3.org/Graphics/SVG/1.1/DTD/svg11.dtd">
<svg xmlns:xlink="http://www.w3.org/1999/xlink" width="579.490287pt" height="197.383219pt" viewBox="0 0 579.490287 197.383219" xmlns="http://www.w3.org/2000/svg" version="1.1">
 <metadata>
  <rdf:RDF xmlns:dc="http://purl.org/dc/elements/1.1/" xmlns:cc="http://creativecommons.org/ns#" xmlns:rdf="http://www.w3.org/1999/02/22-rdf-syntax-ns#">
   <cc:Work>
    <dc:type rdf:resource="http://purl.org/dc/dcmitype/StillImage"/>
    <dc:date>2026-10-07T23:45:16.892225</dc:date>
    <dc:format>image/svg+xml</dc:format>
    <dc:creator>
     <cc:Agent>
      <dc:title>Matplotlib v3.11.2, https://matplotlib.org/</dc:title>
     </cc:Agent>
    </dc:creator>
   </cc:Work>
  </rdf:RDF>
 </metadata>
 <defs>
  <style type="text/css">*{stroke-linejoin: round; stroke-linecap: butt}</style>
 </defs>
 <g id="figure_1">
  <g id="patch_1">
   <path d="M -0 197.383219 
L 579.490287 197.383219 
L 579.490287 0 
L -0 0 
z
" style="fill: #ffffff"/>
  </g>
  <g id="axes_1">
   <g id="patch_2">
    <path d="M 35.108125 164.182594 
L 214.85043 164.182594 
L 214.85043 20.038594 
L 35.108125 20.038594 
z
" style="fill: #ffffff"/>
   </g>
   <g id="PathCollection_1">
    <defs>
     <path id="m059ebc4dab" d="M 5.477226 0 
L -5.477226 -0 
" style="stroke: #bbbbbb; stroke-width: 1.2"/>
    </defs>
    <g clip-path="url(#p269b54c695)">
     <use xlink:href="#m059ebc4dab" x="46.527486" y="159.672321" style="fill: #bbbbbb; stroke: #bbbbbb; stroke-width: 1.2"/>
     <use xlink:href="#m059ebc4dab" x="46.527486" y="129.603834" style="fill: #bbbbbb; stroke: #bbbbbb; stroke-width: 1.2"/>
     <use xlink:href="#m059ebc4dab" x="46.527486" y="99.535348" style="fill: #bbbbbb; stroke: #bbbbbb; stroke-width: 1.2"/>
     <use xlink:href="#m059ebc4dab" x="46.527486" y="69.466861" style="fill: #bbbbbb; stroke: #bbbbbb; stroke-width: 1.2"/>
    </g>
   </g>
   <g id="PathCollection_2">
    <g clip-path="url(#p269b54c695)">
     <use xlink:href="#m059ebc4dab" x="78.624062" y="142.083384" style="fill: #bbbbbb; stroke: #bbbbbb; stroke-width: 1.2"/>
     <use xlink:href="#m059ebc4dab" x="78.624062" y="85.720934" style="fill: #bbbbbb; stroke: #bbbbbb; stroke-width: 1.2"/>
    </g>
   </g>
   <g id="PathCollection_3">
    <g clip-path="url(#p269b54c695)">
     <use xlink:href="#m059ebc4dab" x="110.720638" y="159.672321" style="fill: #bbbbbb; stroke: #bbbbbb; stroke-width: 1.2"/>
    </g>
   </g>
   <g id="PathCollection_4">
    <g clip-path="url(#p269b54c695)">
     <use xlink:href="#m059ebc4dab" x="142.817214" y="119.923944" style="fill: #bbbbbb; stroke: #bbbbbb; stroke-width: 1.2"/>
     <use xlink:href="#m059ebc4dab" x="142.817214" y="105.327894" style="fill: #bbbbbb; stroke: #bbbbbb; stroke-width: 1.2"/>
    </g>
   </g>
   <g id="PathCollection_5"/>
   <g id="matplotlib.axis_1">
    <g id="xtick_1">
     <g id="line2d_1">
      <defs>
       <path id="m09163163a8" d="M 0 0 
L 0 3.5 
" style="stroke: #000000; stroke-width: 0.6"/>
      </defs>
      <g>
       <use xlink:href="#m09163163a8" x="46.527486" y="164.182594" style="stroke: #000000; stroke-width: 0.6"/>
      </g>
     </g>
     <g id="text_1">
      <text style="font-size: 7px; font-family: 'DejaVu Sans', 'Bitstream Vera Sans', 'Computer Modern Sans Serif', 'Lucida Grande', 'Verdana', 'Geneva', 'Lucid', 'Arial', 'Helvetica', 'Avant Garde', sans-serif; text-anchor: middle" x="46.527486" y="176.500953" transform="rotate(-0 46.527486 176.500953)">32</text>
     </g>
    </g>
    <g id="xtick_2">
     <g id="line2d_2">
      <g>
       <use xlink:href="#m09163163a8" x="78.624062" y="164.182594" style="stroke: #000000; stroke-width: 0.6"/>
      </g>
     </g>
     <g id="text_2">
      <text style="font-size: 7px; font-family: 'DejaVu Sans', 'Bitstream Vera Sans', 'Computer Modern Sans Serif', 'Lucida Grande', 'Verdana', 'Geneva', 'Lucid', 'Arial', 'Helvetica', 'Avant Garde', sans-serif; text-anchor: middle" x="78.624062" y="176.500953" transform="rotate(-0 78.624062 176.500953)">33</text>
     </g>
    </g>
    <g id="xtick_3">
     <g id="line2d_3">
      <g>
       <use xlink:href="#m09163163a8" x="110.720638" y="164.182594" style="stroke: #000000; stroke-width: 0.6"/>
      </g>
     </g>
     <g id="text_3">
      <text style="font-size: 7px; font-family: 'DejaVu Sans', 'Bitstream Vera Sans', 'Computer Modern Sans Serif', 'Lucida Grande', 'Verdana', 'Geneva', 'Lucid', 'Arial', 'Helvetica', 'Avant Garde', sans-serif; text-anchor: middle" x="110.720638" y="176.500953" transform="rotate(-0 110.720638 176.500953)">34</text>
     </g>
    </g>
    <g id="xtick_4">
     <g id="line2d_4">
      <g>
       <use xlink:href="#m09163163a8" x="142.817214" y="164.182594" style="stroke: #000000; stroke-width: 0.6"/>
      </g>
     </g>
     <g id="text_4">
      <text style="font-size: 7px; font-family: 'DejaVu Sans', 'Bitstream Vera Sans', 'Computer Modern Sans Serif', 'Lucida Grande', 'Verdana', 'Geneva', 'Lucid', 'Arial', 'Helvetica', 'Avant Garde', sans-serif; text-anchor: middle" x="142.817214" y="176.500953" transform="rotate(-0 142.817214 176.500953)">35</text>
     </g>
    </g>
    <g id="xtick_5">
     <g id="line2d_5">
      <g>
       <use xlink:href="#m09163163a8" x="207.010367" y="164.182594" style="stroke: #000000; stroke-width: 0.6"/>
      </g>
     </g>
     <g id="text_5">
      <text style="font-size: 7px; font-family: 'DejaVu Sans', 'Bitstream Vera Sans', 'Computer Modern Sans Serif', 'Lucida Grande', 'Verdana', 'Geneva', 'Lucid', 'Arial', 'Helvetica', 'Avant Garde', sans-serif; text-anchor: middle" x="207.010367" y="176.500953" transform="rotate(-0 207.010367 176.500953)">37</text>
     </g>
    </g>
    <g id="text_6">
     <text style="font-size: 8px; font-family: 'DejaVu Sans', 'Bitstream Vera Sans', 'Computer Modern Sans Serif', 'Lucida Grande', 'Verdana', 'Geneva', 'Lucid', 'Arial', 'Helvetica', 'Avant Garde', sans-serif; text-anchor: middle" x="124.979277" y="188.261344" transform="rotate(-0 124.979277 188.261344)">ring length P (L = 16)</text>
    </g>
   </g>
   <g id="matplotlib.axis_2">
    <g id="ytick_1">
     <g id="line2d_6">
      <defs>
       <path id="m173d34578c" d="M 0 0 
L -3.5 0 
" style="stroke: #000000; stroke-width: 0.6"/>
      </defs>
      <g>
       <use xlink:href="#m173d34578c" x="35.108125" y="159.672321" style="stroke: #000000; stroke-width: 0.6"/>
      </g>
     </g>
     <g id="text_7">
      <text style="font-size: 7px; font-family: 'DejaVu Sans', 'Bitstream Vera Sans', 'Computer Modern Sans Serif', 'Lucida Grande', 'Verdana', 'Geneva', 'Lucid', 'Arial', 'Helvetica', 'Avant Garde', sans-serif; text-anchor: end" x="28.108125" y="162.3315" transform="rotate(-0 28.108125 162.3315)">2</text>
     </g>
    </g>
    <g id="ytick_2">
     <g id="line2d_7">
      <g>
       <use xlink:href="#m173d34578c" x="35.108125" y="142.083384" style="stroke: #000000; stroke-width: 0.6"/>
      </g>
     </g>
     <g id="text_8">
      <text style="font-size: 7px; font-family: 'DejaVu Sans', 'Bitstream Vera Sans', 'Computer Modern Sans Serif', 'Lucida Grande', 'Verdana', 'Geneva', 'Lucid', 'Arial', 'Helvetica', 'Avant Garde', sans-serif; text-anchor: end" x="28.108125" y="144.742563" transform="rotate(-0 28.108125 144.742563)">3</text>
     </g>
    </g>
    <g id="ytick_3">
     <g id="line2d_8">
      <g>
       <use xlink:href="#m173d34578c" x="35.108125" y="119.923944" style="stroke: #000000; stroke-width: 0.6"/>
      </g>
     </g>
     <g id="text_9">
      <text style="font-size: 7px; font-family: 'DejaVu Sans', 'Bitstream Vera Sans', 'Computer Modern Sans Serif', 'Lucida Grande', 'Verdana', 'Geneva', 'Lucid', 'Arial', 'Helvetica', 'Avant Garde', sans-serif; text-anchor: end" x="28.108125" y="122.583123" transform="rotate(-0 28.108125 122.583123)">5</text>
     </g>
    </g>
    <g id="ytick_4">
     <g id="line2d_9">
      <g>
       <use xlink:href="#m173d34578c" x="35.108125" y="89.855457" style="stroke: #000000; stroke-width: 0.6"/>
      </g>
     </g>
     <g id="text_10">
      <text style="font-size: 7px; font-family: 'DejaVu Sans', 'Bitstream Vera Sans', 'Computer Modern Sans Serif', 'Lucida Grande', 'Verdana', 'Geneva', 'Lucid', 'Arial', 'Helvetica', 'Avant Garde', sans-serif; text-anchor: end" x="28.108125" y="92.514637" transform="rotate(-0 28.108125 92.514637)">10</text>
     </g>
    </g>
    <g id="ytick_5">
     <g id="line2d_10">
      <g>
       <use xlink:href="#m173d34578c" x="35.108125" y="59.786971" style="stroke: #000000; stroke-width: 0.6"/>
      </g>
     </g>
     <g id="text_11">
      <text style="font-size: 7px; font-family: 'DejaVu Sans', 'Bitstream Vera Sans', 'Computer Modern Sans Serif', 'Lucida Grande', 'Verdana', 'Geneva', 'Lucid', 'Arial', 'Helvetica', 'Avant Garde', sans-serif; text-anchor: end" x="28.108125" y="62.44615" transform="rotate(-0 28.108125 62.44615)">20</text>
     </g>
    </g>
    <g id="ytick_6">
     <g id="line2d_11">
      <g>
       <use xlink:href="#m173d34578c" x="35.108125" y="20.038594" style="stroke: #000000; stroke-width: 0.6"/>
      </g>
     </g>
     <g id="text_12">
      <text style="font-size: 7px; font-family: 'DejaVu Sans', 'Bitstream Vera Sans', 'Computer Modern Sans Serif', 'Lucida Grande', 'Verdana', 'Geneva', 'Lucid', 'Arial', 'Helvetica', 'Avant Garde', sans-serif; text-anchor: end" x="28.108125" y="22.697773" transform="rotate(-0 28.108125 22.697773)">50</text>
     </g>
    </g>
    <g id="text_13">
     <text style="font-size: 8px; font-family: 'DejaVu Sans', 'Bitstream Vera Sans', 'Computer Modern Sans Serif', 'Lucida Grande', 'Verdana', 'Geneva', 'Lucid', 'Arial', 'Helvetica', 'Avant Garde', sans-serif; text-anchor: middle" x="13.27875" y="92.110594" transform="rotate(-90 13.27875 92.110594)">period of first replicator (bytes)</text>
    </g>
   </g>
   <g id="patch_3">
    <path d="M 35.108125 164.182594 
L 35.108125 20.038594 
" style="fill: none; stroke: #000000; stroke-width: 0.6; stroke-linejoin: miter; stroke-linecap: square"/>
   </g>
   <g id="patch_4">
    <path d="M 35.108125 164.182594 
L 214.85043 164.182594 
" style="fill: none; stroke: #000000; stroke-width: 0.6; stroke-linejoin: miter; stroke-linecap: square"/>
   </g>
   <g id="PathCollection_6">
    <defs>
     <path id="m87accc9f4e" d="M 0 1.870829 
C 0.49615 1.870829 0.972045 1.673706 1.322876 1.322876 
C 1.673706 0.972045 1.870829 0.49615 1.870829 0 
C 1.870829 -0.49615 1.673706 -0.972045 1.322876 -1.322876 
C 0.972045 -1.673706 0.49615 -1.870829 0 -1.870829 
C -0.49615 -1.870829 -0.972045 -1.673706 -1.322876 -1.322876 
C -1.673706 -0.972045 -1.870829 -0.49615 -1.870829 0 
C -1.870829 0.49615 -1.673706 0.972045 -1.322876 1.322876 
C -0.972045 1.673706 -0.49615 1.870829 0 1.870829 
z
"/>
    </defs>
    <g clip-path="url(#p269b54c695)">
     <use xlink:href="#m87accc9f4e" x="46.850326" y="99.535348" style="fill: #1f5f8b"/>
     <use xlink:href="#m87accc9f4e" x="46.188276" y="129.603834" style="fill: #1f5f8b"/>
     <use xlink:href="#m87accc9f4e" x="48.171915" y="129.603834" style="fill: #1f5f8b"/>
     <use xlink:href="#m87accc9f4e" x="46.79684" y="69.466861" style="fill: #1f5f8b"/>
     <use xlink:href="#m87accc9f4e" x="45.152033" y="99.535348" style="fill: #1f5f8b"/>
     <use xlink:href="#m87accc9f4e" x="47.455963" y="129.603834" style="fill: #1f5f8b"/>
     <use xlink:href="#m87accc9f4e" x="49.8758" y="99.535348" style="fill: #1f5f8b"/>
     <use xlink:href="#m87accc9f4e" x="48.95933" y="129.603834" style="fill: #1f5f8b"/>
     <use xlink:href="#m87accc9f4e" x="44.720486" y="129.603834" style="fill: #1f5f8b"/>
     <use xlink:href="#m87accc9f4e" x="43.27823" y="99.535348" style="fill: #1f5f8b"/>
    </g>
   </g>
   <g id="PathCollection_7"/>
   <g id="PathCollection_8">
    <g clip-path="url(#p269b54c695)">
     <use xlink:href="#m87accc9f4e" x="77.023664" y="85.720934" style="fill: #1f5f8b"/>
    </g>
   </g>
   <g id="PathCollection_9">
    <path d="M 78.730176 71.588182 
C 79.292756 71.588182 79.832371 71.364666 80.230176 70.966861 
C 80.62798 70.569057 80.851496 70.029442 80.851496 69.466861 
C 80.851496 68.904281 80.62798 68.364666 80.230176 67.966861 
C 79.832371 67.569057 79.292756 67.345541 78.730176 67.345541 
C 78.167595 67.345541 77.62798 67.569057 77.230176 67.966861 
C 76.832371 68.364666 76.608855 68.904281 76.608855 69.466861 
C 76.608855 70.029442 76.832371 70.569057 77.230176 70.966861 
C 77.62798 71.364666 78.167595 71.588182 78.730176 71.588182 
L 78.730176 71.588182 
z
" clip-path="url(#p269b54c695)" style="fill: none; stroke: #1f5f8b; stroke-width: 0.8"/>
   </g>
   <g id="PathCollection_10"/>
   <g id="PathCollection_11">
    <defs>
     <path id="C0_0_aa2a39f3df" d="M 0 2.12132 
C 0.562581 2.12132 1.102195 1.897805 1.5 1.5 
C 1.897805 1.102195 2.12132 0.562581 2.12132 -0 
C 2.12132 -0.562581 1.897805 -1.102195 1.5 -1.5 
C 1.102195 -1.897805 0.562581 -2.12132 0 -2.12132 
C -0.562581 -2.12132 -1.102195 -1.897805 -1.5 -1.5 
C -1.897805 -1.102195 -2.12132 -0.562581 -2.12132 0 
C -2.12132 0.562581 -1.897805 1.102195 -1.5 1.5 
C -1.102195 1.897805 -0.562581 2.12132 0 2.12132 
z
"/>
    </defs>
    <g clip-path="url(#p269b54c695)">
     <use xlink:href="#C0_0_aa2a39f3df" x="104.750596" y="129.603834" style="fill: none; stroke: #1f5f8b; stroke-width: 0.8"/>
    </g>
    <g clip-path="url(#p269b54c695)">
     <use xlink:href="#C0_0_aa2a39f3df" x="110.158841" y="69.466861" style="fill: none; stroke: #1f5f8b; stroke-width: 0.8"/>
    </g>
    <g clip-path="url(#p269b54c695)">
     <use xlink:href="#C0_0_aa2a39f3df" x="107.52148" y="72.26652" style="fill: none; stroke: #1f5f8b; stroke-width: 0.8"/>
    </g>
    <g clip-path="url(#p269b54c695)">
     <use xlink:href="#C0_0_aa2a39f3df" x="108.840376" y="69.466861" style="fill: none; stroke: #1f5f8b; stroke-width: 0.8"/>
    </g>
    <g clip-path="url(#p269b54c695)">
     <use xlink:href="#C0_0_aa2a39f3df" x="109.32313" y="69.466861" style="fill: none; stroke: #1f5f8b; stroke-width: 0.8"/>
    </g>
    <g clip-path="url(#p269b54c695)">
     <use xlink:href="#C0_0_aa2a39f3df" x="109.908466" y="94.42596" style="fill: none; stroke: #1f5f8b; stroke-width: 0.8"/>
    </g>
   </g>
   <g id="PathCollection_12"/>
   <g id="PathCollection_13">
    <defs>
     <path id="C1_0_6e171f1bcf" d="M 0 2.12132 
C 0.562581 2.12132 1.102195 1.897805 1.5 1.5 
C 1.897805 1.102195 2.12132 0.562581 2.12132 -0 
C 2.12132 -0.562581 1.897805 -1.102195 1.5 -1.5 
C 1.102195 -1.897805 0.562581 -2.12132 0 -2.12132 
C -0.562581 -2.12132 -1.102195 -1.897805 -1.5 -1.5 
C -1.897805 -1.102195 -2.12132 -0.562581 -2.12132 0 
C -2.12132 0.562581 -1.897805 1.102195 -1.5 1.5 
C -1.102195 1.897805 -0.562581 2.12132 0 2.12132 
z
"/>
    </defs>
    <g clip-path="url(#p269b54c695)">
     <use xlink:href="#C1_0_6e171f1bcf" x="143.874169" y="112.014897" style="fill: none; stroke: #1f5f8b; stroke-width: 0.8"/>
    </g>
    <g clip-path="url(#p269b54c695)">
     <use xlink:href="#C1_0_6e171f1bcf" x="145.494103" y="72.26652" style="fill: none; stroke: #1f5f8b; stroke-width: 0.8"/>
    </g>
   </g>
   <g id="PathCollection_14"/>
   <g id="PathCollection_15">
    <path d="M 206.680325 74.387841 
C 207.242906 74.387841 207.782521 74.164325 208.180325 73.76652 
C 208.57813 73.368716 208.801646 72.829101 208.801646 72.26652 
C 208.801646 71.703939 208.57813 71.164325 208.180325 70.76652 
C 207.782521 70.368716 207.242906 70.1452 206.680325 70.1452 
C 206.117744 70.1452 205.57813 70.368716 205.180325 70.76652 
C 204.782521 71.164325 204.559005 71.703939 204.559005 72.26652 
C 204.559005 72.829101 204.782521 73.368716 205.180325 73.76652 
C 205.57813 74.164325 206.117744 74.387841 206.680325 74.387841 
L 206.680325 74.387841 
z
" clip-path="url(#p269b54c695)" style="fill: none; stroke: #1f5f8b; stroke-width: 0.8"/>
   </g>
   <g id="text_14">
    <text style="font-size: 9px; font-family: 'DejaVu Sans', 'Bitstream Vera Sans', 'Computer Modern Sans Serif', 'Lucida Grande', 'Verdana', 'Geneva', 'Lucid', 'Arial', 'Helvetica', 'Avant Garde', sans-serif; text-anchor: middle; fill: #1f5f8b" x="124.979277" y="14.038594" transform="rotate(-0 124.979277 14.038594)">stack-write-only, L = 16</text>
   </g>
  </g>
  <g id="axes_2">
   <g id="patch_5">
    <path d="M 250.798891 164.182594 
L 430.541196 164.182594 
L 430.541196 20.038594 
L 250.798891 20.038594 
z
" style="fill: #ffffff"/>
   </g>
   <g id="PathCollection_16">
    <g clip-path="url(#pc485a4f168)">
     <use xlink:href="#m059ebc4dab" x="260.79698" y="157.989003" style="fill: #bbbbbb; stroke: #bbbbbb; stroke-width: 1.2"/>
     <use xlink:href="#m059ebc4dab" x="260.79698" y="140.612105" style="fill: #bbbbbb; stroke: #bbbbbb; stroke-width: 1.2"/>
     <use xlink:href="#m059ebc4dab" x="260.79698" y="128.283" style="fill: #bbbbbb; stroke: #bbbbbb; stroke-width: 1.2"/>
     <use xlink:href="#m059ebc4dab" x="260.79698" y="110.906101" style="fill: #bbbbbb; stroke: #bbbbbb; stroke-width: 1.2"/>
     <use xlink:href="#m059ebc4dab" x="260.79698" y="98.576996" style="fill: #bbbbbb; stroke: #bbbbbb; stroke-width: 1.2"/>
     <use xlink:href="#m059ebc4dab" x="260.79698" y="93.529203" style="fill: #bbbbbb; stroke: #bbbbbb; stroke-width: 1.2"/>
     <use xlink:href="#m059ebc4dab" x="260.79698" y="81.200097" style="fill: #bbbbbb; stroke: #bbbbbb; stroke-width: 1.2"/>
     <use xlink:href="#m059ebc4dab" x="260.79698" y="63.823199" style="fill: #bbbbbb; stroke: #bbbbbb; stroke-width: 1.2"/>
     <use xlink:href="#m059ebc4dab" x="260.79698" y="51.494094" style="fill: #bbbbbb; stroke: #bbbbbb; stroke-width: 1.2"/>
     <use xlink:href="#m059ebc4dab" x="260.79698" y="34.117195" style="fill: #bbbbbb; stroke: #bbbbbb; stroke-width: 1.2"/>
    </g>
   </g>
   <g id="PathCollection_17"/>
   <g id="PathCollection_18">
    <g clip-path="url(#pc485a4f168)">
     <use xlink:href="#m059ebc4dab" x="306.061227" y="157.989003" style="fill: #bbbbbb; stroke: #bbbbbb; stroke-width: 1.2"/>
    </g>
   </g>
   <g id="PathCollection_19">
    <g clip-path="url(#pc485a4f168)">
     <use xlink:href="#m059ebc4dab" x="328.69335" y="140.612105" style="fill: #bbbbbb; stroke: #bbbbbb; stroke-width: 1.2"/>
     <use xlink:href="#m059ebc4dab" x="328.69335" y="118.719802" style="fill: #bbbbbb; stroke: #bbbbbb; stroke-width: 1.2"/>
     <use xlink:href="#m059ebc4dab" x="328.69335" y="71.6369" style="fill: #bbbbbb; stroke: #bbbbbb; stroke-width: 1.2"/>
     <use xlink:href="#m059ebc4dab" x="328.69335" y="49.744598" style="fill: #bbbbbb; stroke: #bbbbbb; stroke-width: 1.2"/>
    </g>
   </g>
   <g id="PathCollection_20"/>
   <g id="matplotlib.axis_3">
    <g id="xtick_6">
     <g id="line2d_12">
      <g>
       <use xlink:href="#m09163163a8" x="260.79698" y="164.182594" style="stroke: #000000; stroke-width: 0.6"/>
      </g>
     </g>
     <g id="text_15">
      <text style="font-size: 7px; font-family: 'DejaVu Sans', 'Bitstream Vera Sans', 'Computer Modern Sans Serif', 'Lucida Grande', 'Verdana', 'Geneva', 'Lucid', 'Arial', 'Helvetica', 'Avant Garde', sans-serif; text-anchor: middle" x="260.79698" y="176.500953" transform="rotate(-0 260.79698 176.500953)">72</text>
     </g>
    </g>
    <g id="xtick_7">
     <g id="line2d_13">
      <g>
       <use xlink:href="#m09163163a8" x="283.429103" y="164.182594" style="stroke: #000000; stroke-width: 0.6"/>
      </g>
     </g>
     <g id="text_16">
      <text style="font-size: 7px; font-family: 'DejaVu Sans', 'Bitstream Vera Sans', 'Computer Modern Sans Serif', 'Lucida Grande', 'Verdana', 'Geneva', 'Lucid', 'Arial', 'Helvetica', 'Avant Garde', sans-serif; text-anchor: middle" x="283.429103" y="176.500953" transform="rotate(-0 283.429103 176.500953)">73</text>
     </g>
    </g>
    <g id="xtick_8">
     <g id="line2d_14">
      <g>
       <use xlink:href="#m09163163a8" x="306.061227" y="164.182594" style="stroke: #000000; stroke-width: 0.6"/>
      </g>
     </g>
     <g id="text_17">
      <text style="font-size: 7px; font-family: 'DejaVu Sans', 'Bitstream Vera Sans', 'Computer Modern Sans Serif', 'Lucida Grande', 'Verdana', 'Geneva', 'Lucid', 'Arial', 'Helvetica', 'Avant Garde', sans-serif; text-anchor: middle" x="306.061227" y="176.500953" transform="rotate(-0 306.061227 176.500953)">74</text>
     </g>
    </g>
    <g id="xtick_9">
     <g id="line2d_15">
      <g>
       <use xlink:href="#m09163163a8" x="328.69335" y="164.182594" style="stroke: #000000; stroke-width: 0.6"/>
      </g>
     </g>
     <g id="text_18">
      <text style="font-size: 7px; font-family: 'DejaVu Sans', 'Bitstream Vera Sans', 'Computer Modern Sans Serif', 'Lucida Grande', 'Verdana', 'Geneva', 'Lucid', 'Arial', 'Helvetica', 'Avant Garde', sans-serif; text-anchor: middle" x="328.69335" y="176.500953" transform="rotate(-0 328.69335 176.500953)">75</text>
     </g>
    </g>
    <g id="xtick_10">
     <g id="line2d_16">
      <g>
       <use xlink:href="#m09163163a8" x="419.221844" y="164.182594" style="stroke: #000000; stroke-width: 0.6"/>
      </g>
     </g>
     <g id="text_19">
      <text style="font-size: 7px; font-family: 'DejaVu Sans', 'Bitstream Vera Sans', 'Computer Modern Sans Serif', 'Lucida Grande', 'Verdana', 'Geneva', 'Lucid', 'Arial', 'Helvetica', 'Avant Garde', sans-serif; text-anchor: middle" x="419.221844" y="176.500953" transform="rotate(-0 419.221844 176.500953)">79</text>
     </g>
    </g>
    <g id="text_20">
     <text style="font-size: 8px; font-family: 'DejaVu Sans', 'Bitstream Vera Sans', 'Computer Modern Sans Serif', 'Lucida Grande', 'Verdana', 'Geneva', 'Lucid', 'Arial', 'Helvetica', 'Avant Garde', sans-serif; text-anchor: middle" x="340.670043" y="188.261344" transform="rotate(-0 340.670043 188.261344)">ring length P (L = 36)</text>
    </g>
   </g>
   <g id="matplotlib.axis_4">
    <g id="ytick_7">
     <g id="line2d_17">
      <g>
       <use xlink:href="#m173d34578c" x="250.798891" y="157.989003" style="stroke: #000000; stroke-width: 0.6"/>
      </g>
     </g>
     <g id="text_21">
      <text style="font-size: 7px; font-family: 'DejaVu Sans', 'Bitstream Vera Sans', 'Computer Modern Sans Serif', 'Lucida Grande', 'Verdana', 'Geneva', 'Lucid', 'Arial', 'Helvetica', 'Avant Garde', sans-serif; text-anchor: end" x="243.798891" y="160.648183" transform="rotate(-0 243.798891 160.648183)">2</text>
     </g>
    </g>
    <g id="ytick_8">
     <g id="line2d_18">
      <g>
       <use xlink:href="#m173d34578c" x="250.798891" y="140.612105" style="stroke: #000000; stroke-width: 0.6"/>
      </g>
     </g>
     <g id="text_22">
      <text style="font-size: 7px; font-family: 'DejaVu Sans', 'Bitstream Vera Sans', 'Computer Modern Sans Serif', 'Lucida Grande', 'Verdana', 'Geneva', 'Lucid', 'Arial', 'Helvetica', 'Avant Garde', sans-serif; text-anchor: end" x="243.798891" y="143.271285" transform="rotate(-0 243.798891 143.271285)">3</text>
     </g>
    </g>
    <g id="ytick_9">
     <g id="line2d_19">
      <g>
       <use xlink:href="#m173d34578c" x="250.798891" y="118.719802" style="stroke: #000000; stroke-width: 0.6"/>
      </g>
     </g>
     <g id="text_23">
      <text style="font-size: 7px; font-family: 'DejaVu Sans', 'Bitstream Vera Sans', 'Computer Modern Sans Serif', 'Lucida Grande', 'Verdana', 'Geneva', 'Lucid', 'Arial', 'Helvetica', 'Avant Garde', sans-serif; text-anchor: end" x="243.798891" y="121.378982" transform="rotate(-0 243.798891 121.378982)">5</text>
     </g>
    </g>
    <g id="ytick_10">
     <g id="line2d_20">
      <g>
       <use xlink:href="#m173d34578c" x="250.798891" y="89.013799" style="stroke: #000000; stroke-width: 0.6"/>
      </g>
     </g>
     <g id="text_24">
      <text style="font-size: 7px; font-family: 'DejaVu Sans', 'Bitstream Vera Sans', 'Computer Modern Sans Serif', 'Lucida Grande', 'Verdana', 'Geneva', 'Lucid', 'Arial', 'Helvetica', 'Avant Garde', sans-serif; text-anchor: end" x="243.798891" y="91.672978" transform="rotate(-0 243.798891 91.672978)">10</text>
     </g>
    </g>
    <g id="ytick_11">
     <g id="line2d_21">
      <g>
       <use xlink:href="#m173d34578c" x="250.798891" y="59.307795" style="stroke: #000000; stroke-width: 0.6"/>
      </g>
     </g>
     <g id="text_25">
      <text style="font-size: 7px; font-family: 'DejaVu Sans', 'Bitstream Vera Sans', 'Computer Modern Sans Serif', 'Lucida Grande', 'Verdana', 'Geneva', 'Lucid', 'Arial', 'Helvetica', 'Avant Garde', sans-serif; text-anchor: end" x="243.798891" y="61.966974" transform="rotate(-0 243.798891 61.966974)">20</text>
     </g>
    </g>
    <g id="ytick_12">
     <g id="line2d_22">
      <g>
       <use xlink:href="#m173d34578c" x="250.798891" y="20.038594" style="stroke: #000000; stroke-width: 0.6"/>
      </g>
     </g>
     <g id="text_26">
      <text style="font-size: 7px; font-family: 'DejaVu Sans', 'Bitstream Vera Sans', 'Computer Modern Sans Serif', 'Lucida Grande', 'Verdana', 'Geneva', 'Lucid', 'Arial', 'Helvetica', 'Avant Garde', sans-serif; text-anchor: end" x="243.798891" y="22.697773" transform="rotate(-0 243.798891 22.697773)">50</text>
     </g>
    </g>
   </g>
   <g id="patch_6">
    <path d="M 250.798891 164.182594 
L 250.798891 20.038594 
" style="fill: none; stroke: #000000; stroke-width: 0.6; stroke-linejoin: miter; stroke-linecap: square"/>
   </g>
   <g id="patch_7">
    <path d="M 250.798891 164.182594 
L 430.541196 164.182594 
" style="fill: none; stroke: #000000; stroke-width: 0.6; stroke-linejoin: miter; stroke-linecap: square"/>
   </g>
   <g id="PathCollection_21">
    <g clip-path="url(#pc485a4f168)">
     <use xlink:href="#m87accc9f4e" x="263.271058" y="81.200097" style="fill: #1f5f8b"/>
     <use xlink:href="#m87accc9f4e" x="259.592599" y="98.576996" style="fill: #1f5f8b"/>
     <use xlink:href="#m87accc9f4e" x="261.433414" y="93.529203" style="fill: #1f5f8b"/>
     <use xlink:href="#m87accc9f4e" x="262.432776" y="110.906101" style="fill: #1f5f8b"/>
     <use xlink:href="#m87accc9f4e" x="260.967196" y="81.200097" style="fill: #1f5f8b"/>
     <use xlink:href="#m87accc9f4e" x="259.450823" y="110.906101" style="fill: #1f5f8b"/>
     <use xlink:href="#m87accc9f4e" x="259.128132" y="81.200097" style="fill: #1f5f8b"/>
     <use xlink:href="#m87accc9f4e" x="259.968235" y="110.906101" style="fill: #1f5f8b"/>
     <use xlink:href="#m87accc9f4e" x="261.195659" y="128.283" style="fill: #1f5f8b"/>
     <use xlink:href="#m87accc9f4e" x="258.968996" y="81.200097" style="fill: #1f5f8b"/>
    </g>
   </g>
   <g id="PathCollection_22"/>
   <g id="PathCollection_23"/>
   <g id="PathCollection_24">
    <defs>
     <path id="C2_0_13190dd5df" d="M 0 2.12132 
C 0.562581 2.12132 1.102195 1.897805 1.5 1.5 
C 1.897805 1.102195 2.12132 0.562581 2.12132 -0 
C 2.12132 -0.562581 1.897805 -1.102195 1.5 -1.5 
C 1.102195 -1.897805 0.562581 -2.12132 0 -2.12132 
C -0.562581 -2.12132 -1.102195 -1.897805 -1.5 -1.5 
C -1.897805 -1.102195 -2.12132 -0.562581 -2.12132 0 
C -2.12132 0.562581 -1.897805 1.102195 -1.5 1.5 
C -1.102195 1.897805 -0.562581 2.12132 0 2.12132 
z
"/>
    </defs>
    <g clip-path="url(#pc485a4f168)">
     <use xlink:href="#C2_0_13190dd5df" x="283.050376" y="35.324506" style="fill: none; stroke: #1f5f8b; stroke-width: 0.8"/>
    </g>
    <g clip-path="url(#pc485a4f168)">
     <use xlink:href="#C2_0_13190dd5df" x="283.140815" y="93.529203" style="fill: none; stroke: #1f5f8b; stroke-width: 0.8"/>
    </g>
    <g clip-path="url(#pc485a4f168)">
     <use xlink:href="#C2_0_13190dd5df" x="284.408342" y="43.383805" style="fill: none; stroke: #1f5f8b; stroke-width: 0.8"/>
    </g>
    <g clip-path="url(#pc485a4f168)">
     <use xlink:href="#C2_0_13190dd5df" x="283.817759" y="49.744598" style="fill: none; stroke: #1f5f8b; stroke-width: 0.8"/>
    </g>
    <g clip-path="url(#pc485a4f168)">
     <use xlink:href="#C2_0_13190dd5df" x="284.072531" y="34.117195" style="fill: none; stroke: #1f5f8b; stroke-width: 0.8"/>
    </g>
    <g clip-path="url(#pc485a4f168)">
     <use xlink:href="#C2_0_13190dd5df" x="282.245301" y="81.200097" style="fill: none; stroke: #1f5f8b; stroke-width: 0.8"/>
    </g>
   </g>
   <g id="PathCollection_25"/>
   <g id="PathCollection_26">
    <defs>
     <path id="C3_0_b0bdab9dca" d="M 0 2.12132 
C 0.562581 2.12132 1.102195 1.897805 1.5 1.5 
C 1.897805 1.102195 2.12132 0.562581 2.12132 -0 
C 2.12132 -0.562581 1.897805 -1.102195 1.5 -1.5 
C 1.102195 -1.897805 0.562581 -2.12132 0 -2.12132 
C -0.562581 -2.12132 -1.102195 -1.897805 -1.5 -1.5 
C -1.897805 -1.102195 -2.12132 -0.562581 -2.12132 0 
C -2.12132 0.562581 -1.897805 1.102195 -1.5 1.5 
C -1.102195 1.897805 -0.562581 2.12132 0 2.12132 
z
"/>
    </defs>
    <g clip-path="url(#pc485a4f168)">
     <use xlink:href="#C3_0_b0bdab9dca" x="305.826552" y="128.283" style="fill: none; stroke: #1f5f8b; stroke-width: 0.8"/>
    </g>
    <g clip-path="url(#pc485a4f168)">
     <use xlink:href="#C3_0_b0bdab9dca" x="307.480669" y="81.200097" style="fill: none; stroke: #1f5f8b; stroke-width: 0.8"/>
    </g>
    <g clip-path="url(#pc485a4f168)">
     <use xlink:href="#C3_0_b0bdab9dca" x="308.765188" y="128.283" style="fill: none; stroke: #1f5f8b; stroke-width: 0.8"/>
    </g>
    <g clip-path="url(#pc485a4f168)">
     <use xlink:href="#C3_0_b0bdab9dca" x="303.781601" y="128.283" style="fill: none; stroke: #1f5f8b; stroke-width: 0.8"/>
    </g>
    <g clip-path="url(#pc485a4f168)">
     <use xlink:href="#C3_0_b0bdab9dca" x="308.802292" y="81.200097" style="fill: none; stroke: #1f5f8b; stroke-width: 0.8"/>
    </g>
    <g clip-path="url(#pc485a4f168)">
     <use xlink:href="#C3_0_b0bdab9dca" x="308.498028" y="55.223115" style="fill: none; stroke: #1f5f8b; stroke-width: 0.8"/>
    </g>
    <g clip-path="url(#pc485a4f168)">
     <use xlink:href="#C3_0_b0bdab9dca" x="307.475846" y="128.283" style="fill: none; stroke: #1f5f8b; stroke-width: 0.8"/>
    </g>
    <g clip-path="url(#pc485a4f168)">
     <use xlink:href="#C3_0_b0bdab9dca" x="306.540042" y="128.283" style="fill: none; stroke: #1f5f8b; stroke-width: 0.8"/>
    </g>
    <g clip-path="url(#pc485a4f168)">
     <use xlink:href="#C3_0_b0bdab9dca" x="305.492848" y="48.063727" style="fill: none; stroke: #1f5f8b; stroke-width: 0.8"/>
    </g>
    <g clip-path="url(#pc485a4f168)">
     <use xlink:href="#C3_0_b0bdab9dca" x="308.701075" y="74.593707" style="fill: none; stroke: #1f5f8b; stroke-width: 0.8"/>
    </g>
   </g>
   <g id="PathCollection_27"/>
   <g id="PathCollection_28">
    <defs>
     <path id="C4_0_46fb8746c2" d="M 0 2.12132 
C 0.562581 2.12132 1.102195 1.897805 1.5 1.5 
C 1.897805 1.102195 2.12132 0.562581 2.12132 -0 
C 2.12132 -0.562581 1.897805 -1.102195 1.5 -1.5 
C 1.102195 -1.897805 0.562581 -2.12132 0 -2.12132 
C -0.562581 -2.12132 -1.102195 -1.897805 -1.5 -1.5 
C -1.897805 -1.102195 -2.12132 -0.562581 -2.12132 0 
C -2.12132 0.562581 -1.897805 1.102195 -1.5 1.5 
C -1.102195 1.897805 -0.562581 2.12132 0 2.12132 
z
"/>
    </defs>
    <g clip-path="url(#pc485a4f168)">
     <use xlink:href="#C4_0_46fb8746c2" x="332.242535" y="41.930896" style="fill: none; stroke: #1f5f8b; stroke-width: 0.8"/>
    </g>
    <g clip-path="url(#pc485a4f168)">
     <use xlink:href="#C4_0_46fb8746c2" x="331.955336" y="77.769731" style="fill: none; stroke: #1f5f8b; stroke-width: 0.8"/>
    </g>
    <g clip-path="url(#pc485a4f168)">
     <use xlink:href="#C4_0_46fb8746c2" x="331.074438" y="59.307795" style="fill: none; stroke: #1f5f8b; stroke-width: 0.8"/>
    </g>
    <g clip-path="url(#pc485a4f168)">
     <use xlink:href="#C4_0_46fb8746c2" x="329.340412" y="77.769731" style="fill: none; stroke: #1f5f8b; stroke-width: 0.8"/>
    </g>
    <g clip-path="url(#pc485a4f168)">
     <use xlink:href="#C4_0_46fb8746c2" x="326.505605" y="59.307795" style="fill: none; stroke: #1f5f8b; stroke-width: 0.8"/>
    </g>
    <g clip-path="url(#pc485a4f168)">
     <use xlink:href="#C4_0_46fb8746c2" x="328.685286" y="93.529203" style="fill: none; stroke: #1f5f8b; stroke-width: 0.8"/>
    </g>
    <g clip-path="url(#pc485a4f168)">
     <use xlink:href="#C4_0_46fb8746c2" x="329.881944" y="81.200097" style="fill: none; stroke: #1f5f8b; stroke-width: 0.8"/>
    </g>
    <g clip-path="url(#pc485a4f168)">
     <use xlink:href="#C4_0_46fb8746c2" x="326.360682" y="46.446301" style="fill: none; stroke: #1f5f8b; stroke-width: 0.8"/>
    </g>
    <g clip-path="url(#pc485a4f168)">
     <use xlink:href="#C4_0_46fb8746c2" x="329.408746" y="59.307795" style="fill: none; stroke: #1f5f8b; stroke-width: 0.8"/>
    </g>
   </g>
   <g id="PathCollection_29"/>
   <g id="PathCollection_30">
    <defs>
     <path id="C5_0_cb43621668" d="M 0 2.12132 
C 0.562581 2.12132 1.102195 1.897805 1.5 1.5 
C 1.897805 1.102195 2.12132 0.562581 2.12132 -0 
C 2.12132 -0.562581 1.897805 -1.102195 1.5 -1.5 
C 1.102195 -1.897805 0.562581 -2.12132 0 -2.12132 
C -0.562581 -2.12132 -1.102195 -1.897805 -1.5 -1.5 
C -1.897805 -1.102195 -2.12132 -0.562581 -2.12132 0 
C -2.12132 0.562581 -1.897805 1.102195 -1.5 1.5 
C -1.102195 1.897805 -0.562581 2.12132 0 2.12132 
z
"/>
    </defs>
    <g clip-path="url(#pc485a4f168)">
     <use xlink:href="#C5_0_cb43621668" x="420.000142" y="74.593707" style="fill: none; stroke: #1f5f8b; stroke-width: 0.8"/>
    </g>
    <g clip-path="url(#pc485a4f168)">
     <use xlink:href="#C5_0_cb43621668" x="420.482078" y="93.529203" style="fill: none; stroke: #1f5f8b; stroke-width: 0.8"/>
    </g>
    <g clip-path="url(#pc485a4f168)">
     <use xlink:href="#C5_0_cb43621668" x="417.077916" y="63.823199" style="fill: none; stroke: #1f5f8b; stroke-width: 0.8"/>
    </g>
    <g clip-path="url(#pc485a4f168)">
     <use xlink:href="#C5_0_cb43621668" x="418.023785" y="63.823199" style="fill: none; stroke: #1f5f8b; stroke-width: 0.8"/>
    </g>
    <g clip-path="url(#pc485a4f168)">
     <use xlink:href="#C5_0_cb43621668" x="418.431648" y="104.299711" style="fill: none; stroke: #1f5f8b; stroke-width: 0.8"/>
    </g>
    <g clip-path="url(#pc485a4f168)">
     <use xlink:href="#C5_0_cb43621668" x="417.103836" y="63.823199" style="fill: none; stroke: #1f5f8b; stroke-width: 0.8"/>
    </g>
    <g clip-path="url(#pc485a4f168)">
     <use xlink:href="#C5_0_cb43621668" x="422.371091" y="93.529203" style="fill: none; stroke: #1f5f8b; stroke-width: 0.8"/>
    </g>
    <g clip-path="url(#pc485a4f168)">
     <use xlink:href="#C5_0_cb43621668" x="418.323963" y="34.117195" style="fill: none; stroke: #1f5f8b; stroke-width: 0.8"/>
    </g>
   </g>
   <g id="text_27">
    <text style="font-size: 9px; font-family: 'DejaVu Sans', 'Bitstream Vera Sans', 'Computer Modern Sans Serif', 'Lucida Grande', 'Verdana', 'Geneva', 'Lucid', 'Arial', 'Helvetica', 'Avant Garde', sans-serif; text-anchor: middle; fill: #1f5f8b" x="340.670043" y="14.038594" transform="rotate(-0 340.670043 14.038594)">stack-write-only, L = 36</text>
   </g>
  </g>
  <g id="legend_1">
   <g id="line2d_23">
    <defs>
     <path id="md6070e15fe" d="M 0 2 
C 0.530406 2 1.03916 1.789267 1.414214 1.414214 
C 1.789267 1.03916 2 0.530406 2 0 
C 2 -0.530406 1.789267 -1.03916 1.414214 -1.414214 
C 1.03916 -1.789267 0.530406 -2 0 -2 
C -0.530406 -2 -1.03916 -1.789267 -1.414214 -1.414214 
C -1.789267 -1.03916 -2 -0.530406 -2 0 
C -2 0.530406 -1.789267 1.03916 -1.414214 1.414214 
C -1.03916 1.789267 -0.530406 2 0 2 
z
" style="stroke: #1f5f8b"/>
    </defs>
    <g>
     <use xlink:href="#md6070e15fe" x="494.864818" y="16.1035" style="fill: #1f5f8b; stroke: #1f5f8b"/>
    </g>
   </g>
   <g id="text_28">
    <text style="font-size: 7px; font-family: 'DejaVu Sans', 'Bitstream Vera Sans', 'Computer Modern Sans Serif', 'Lucida Grande', 'Verdana', 'Geneva', 'Lucid', 'Arial', 'Helvetica', 'Avant Garde', sans-serif; text-anchor: start" x="507.464818" y="18.5535" transform="rotate(-0 507.464818 18.5535)">period divides P</text>
   </g>
   <g id="line2d_24">
    <defs>
     <path id="m80a22f61b3" d="M 0 2 
C 0.530406 2 1.03916 1.789267 1.414214 1.414214 
C 1.789267 1.03916 2 0.530406 2 0 
C 2 -0.530406 1.789267 -1.03916 1.414214 -1.414214 
C 1.03916 -1.789267 0.530406 -2 0 -2 
C -0.530406 -2 -1.03916 -1.789267 -1.414214 -1.414214 
C -1.789267 -1.03916 -2 -0.530406 -2 0 
C -2 0.530406 -1.789267 1.03916 -1.414214 1.414214 
C -1.03916 1.789267 -0.530406 2 0 2 
z
" style="stroke: #1f5f8b"/>
    </defs>
    <g>
     <use xlink:href="#m80a22f61b3" x="494.864818" y="26.604047" style="fill-opacity: 0; stroke: #1f5f8b"/>
    </g>
   </g>
   <g id="text_29">
    <text style="font-size: 7px; font-family: 'DejaVu Sans', 'Bitstream Vera Sans', 'Computer Modern Sans Serif', 'Lucida Grande', 'Verdana', 'Geneva', 'Lucid', 'Arial', 'Helvetica', 'Avant Garde', sans-serif; text-anchor: start" x="507.464818" y="29.054047" transform="rotate(-0 507.464818 29.054047)">does not divide P</text>
   </g>
   <g id="line2d_25">
    <defs>
     <path id="mbeec0676dd" d="M 5 0 
L -5 -0 
" style="stroke: #bbbbbb"/>
    </defs>
    <g>
     <use xlink:href="#mbeec0676dd" x="494.864818" y="37.104594" style="fill: #bbbbbb; stroke: #bbbbbb"/>
    </g>
   </g>
   <g id="text_30">
    <text style="font-size: 7px; font-family: 'DejaVu Sans', 'Bitstream Vera Sans', 'Computer Modern Sans Serif', 'Lucida Grande', 'Verdana', 'Geneva', 'Lucid', 'Arial', 'Helvetica', 'Avant Garde', sans-serif; text-anchor: start" x="507.464818" y="39.554594" transform="rotate(-0 507.464818 39.554594)">divisors of P (≤ L)</text>
   </g>
  </g>
 </g>
 <defs>
  <clipPath id="p269b54c695">
   <rect x="35.108125" y="20.038594" width="179.742305" height="144.144"/>
  </clipPath>
  <clipPath id="pc485a4f168">
   <rect x="250.798891" y="20.038594" width="179.742305" height="144.144"/>
  </clipPath>
 </defs>
</svg>
