<svg xmlns="http://www.w3.org/2000/svg" width="32" height="32" viewBox="-4 -4 40 40">
  <!-- background -->
  <rect x="-4" y="-4" width="40" height="40" rx="6" fill="#2a2420"/>
  <!-- body -->
  <ellipse cx="16" cy="20" rx="14" ry="14" fill="#c8875a"/>
  <!-- wing line -->
  <line x1="16" y1="8" x2="16" y2="32" stroke="#1a1210" stroke-width="1.5"/>
  <!-- spots left -->
  <circle cx="9" cy="16" r="2.5" fill="#1a1210"/>
  <circle cx="10.5" cy="24" r="2.2" fill="#1a1210"/>
  <circle cx="6" cy="30" r="1.5" fill="#1a1210"/>
  <!-- spots right -->
  <circle cx="23" cy="16" r="2.5" fill="#1a1210"/>
  <circle cx="21.5" cy="24" r="2.2" fill="#1a1210"/>
  <circle cx="26" cy="30" r="1.5" fill="#1a1210"/>
  <!-- head -->
  <circle cx="16" cy="7" r="7" fill="#1a1210"/>
  <!-- eyes -->
  <circle cx="12.8" cy="5.8" r="1.5" fill="#e0cfc0"/>
  <circle cx="19.2" cy="5.8" r="1.5" fill="#e0cfc0"/>
  <!-- antennae -->
  <path d="M12 1.5 Q9 -2 5 0" fill="none" stroke="#1a1210" stroke-width="1.8" stroke-linecap="round"/>
  <path d="M20 1.5 Q23 -2 27 0" fill="none" stroke="#1a1210" stroke-width="1.8" stroke-linecap="round"/>
  <!-- antenna tips -->
  <circle cx="5" cy="0" r="1.8" fill="#1a1210"/>
  <circle cx="27" cy="0" r="1.8" fill="#1a1210"/>
</svg>
